<?xml version="1.0" encoding="utf-8"?>
<!-- Generator: Adobe Illustrator 22.1.0, SVG Export Plug-In . SVG Version: 6.00 Build 0)  -->
<svg version="1.1" id="EDDLogo" xmlns="http://www.w3.org/2000/svg" xmlns:xlink="http://www.w3.org/1999/xlink" x="0px" y="0px"
	 viewBox="0 0 300 105.6" style="enable-background:new 0 0 300 105.6;" xml:space="preserve">
<style type="text/css">
	.st0{fill:#006892;}
	.st1{fill:#E58E1A;}
</style>
<g>
	<path class="st0" d="M7.1,86.6c-0.4-1.1-1.2-1.8-2.4-1.8c-1.6,0-2.2,0.8-2.2,2c0,2.8,6.2,2.2,6.2,6.9c0,2.6-2.2,4.5-5.4,4.5
		C2.2,98.3,1,98,0,97.4c0.2-0.9,0.5-1.7,0.6-2.6H1C1.3,96.2,2.4,97,3.8,97c1.3,0,2.4-0.7,2.4-2.1c0-3.3-6.1-2.1-6.1-7
		c0-2.4,1.6-4.3,4.7-4.3c1.5,0,2.8,0.6,3.2,1c-0.2,0.7-0.5,1.3-0.7,2H7.1z"/>
	<path class="st0" d="M21.6,95.2c0,1.4,0.1,2.2,1.9,1.7v0.8c-0.8,0.3-1.5,0.5-2.1,0.5c-2.1,0-2.6-1.4-2.6-3.3v-5.5h-1.4
		c0.1-0.5,0.1-0.8,0-1.3h1.4v-2.3c0.9-0.4,1.8-0.8,2.8-1.3v3.6h1.7c-0.1,0.5-0.1,0.8,0,1.3h-1.7V95.2z"/>
	<path class="st0" d="M40.5,96.2c0,0.8,0.2,1,1,1v0.5c-0.5,0.2-1.3,0.5-1.8,0.5c-1,0-1.7-0.6-2-1.5c-0.5,0.9-1.6,1.5-2.6,1.5
		c-1.7,0-2.9-0.9-2.9-2.7c0-1.9,1.2-2.5,3.7-3.1c0.5-0.1,1-0.2,1.5-0.5c0.2-0.2,0.3-0.5,0.3-0.8c0-1-1-1.8-1.9-1.8
		c-1.3,0-2.4,0.9-2.5,1.3h-0.1l-0.3-1.2c1-0.9,2.5-1.4,3.8-1.4c1.7,0,3.9,0.7,3.9,2.7L40.5,96.2L40.5,96.2z M37.6,92.6
		c-0.5,0.2-1.4,0.4-2,0.9c-0.5,0.4-0.7,1-0.7,1.7c0,0.8,0.2,1.6,1.1,1.6c1.2,0,1.5-1.2,1.6-2.2V92.6z"/>
	<path class="st0" d="M54.1,95.2c0,1.4,0.1,2.2,1.9,1.7v0.8c-0.8,0.3-1.5,0.5-2.1,0.5c-2.1,0-2.6-1.4-2.6-3.3v-5.5h-1.4
		c0.1-0.5,0.1-0.8,0-1.3h1.4v-2.3c0.9-0.4,1.8-0.8,2.8-1.3v3.6h1.7c-0.1,0.5-0.1,0.8,0,1.3h-1.7L54.1,95.2L54.1,95.2z"/>
	<path class="st0" d="M67.8,93c-0.1,2.1,0.7,3.8,2.8,3.8c0.8,0,1.8-0.4,2.4-0.9l0.2,0.2l-0.4,1.1c-0.8,0.6-1.9,0.9-2.9,0.9
		c-3.4,0-5.1-2-5.1-5.4c0-2.9,1.7-4.9,4.7-4.9c3.2,0,4.4,2.2,4.2,5.1L67.8,93L67.8,93z M70.8,92.1c0-1.1-0.1-3.2-1.3-3.2
		c-1.5,0-1.6,2.2-1.7,3.2H70.8z"/>
	<path class="st0" d="M97.3,93.2c0-3.2,1.9-5.4,5-5.4c3.1,0,5,1.9,5,4.9c0,3.1-1.8,5.4-5,5.4C99.2,98.2,97.3,96.3,97.3,93.2z
		 M100.3,93.2c0,1.3,0.2,4.1,1.9,4.1c1.6,0,2-2.5,2-4.8c0-2-0.5-3.7-1.9-3.7C100.7,88.8,100.3,90.8,100.3,93.2z"/>
	<path class="st0" d="M115.8,89.4c0.1-0.4,0.1-0.8,0-1.3h1.5c0.2-1.1,0.4-2.3,1.1-3.4c1-1.8,2.1-2.5,4.2-2.1
		c-0.1,0.9-0.1,1.8-0.1,2.6l-0.3,0.1c-0.5-0.3-1.2-0.6-1.8-0.6c-0.3,0-0.9,0-1.1,0.3c-0.1,0.1-0.2,0.2-0.2,0.4
		c0,0.5,0.6,2.1,0.9,2.7h2.1c-0.1,0.5-0.1,0.8,0,1.3h-1.9V98c-0.5,0-0.9-0.1-1.4-0.1c-0.5,0-0.9,0.1-1.4,0.1v-8.6H115.8z"/>
	<path class="st0" d="M157.1,95.6l-0.4,1.8c-1.2,0.6-2.7,0.9-4,0.9c-4.4,0-7.7-2.7-7.7-6.9c0-5.3,3.7-7.8,8.1-7.8c1.3,0,3,0.4,4.2,1
		c-0.2,0.7-0.3,1.4-0.5,2.1h-0.3c-0.8-1.1-2.1-1.9-3.4-1.9c-3.4,0-4.8,3.2-4.8,6.3c0,3.5,1.7,5.9,4.9,5.9c1.3,0,2.7-0.7,3.7-1.5
		L157.1,95.6z"/>
	<path class="st0" d="M172.6,96.2c0,0.8,0.2,1,1,1v0.5c-0.5,0.2-1.3,0.5-1.8,0.5c-1,0-1.7-0.6-2-1.5c-0.5,0.9-1.6,1.5-2.6,1.5
		c-1.7,0-2.9-0.9-2.9-2.7c0-1.9,1.2-2.5,3.7-3.1c0.5-0.1,1-0.2,1.5-0.5c0.2-0.2,0.3-0.5,0.3-0.8c0-1-1-1.8-1.9-1.8
		c-1.3,0-2.4,0.9-2.5,1.3h-0.1l-0.3-1.2c1-0.9,2.5-1.4,3.8-1.4c1.7,0,3.9,0.7,3.9,2.7L172.6,96.2L172.6,96.2z M169.8,92.6
		c-0.5,0.2-1.4,0.4-2,0.9c-0.5,0.4-0.7,1-0.7,1.7c0,0.8,0.2,1.6,1.1,1.6c1.2,0,1.5-1.2,1.6-2.2V92.6z"/>
	<path class="st0" d="M185.9,98c-0.5,0-0.9-0.1-1.4-0.1c-0.5,0-0.9,0.1-1.4,0.1V82.5c0.5,0,0.9,0.1,1.4,0.1c0.5,0,0.9-0.1,1.4-0.1
		V98z"/>
	<path class="st0" d="M196.5,88.1c0.5,0,0.9,0.1,1.4,0.1c0.5,0,0.9-0.1,1.4-0.1V98c-0.5,0-0.9-0.1-1.4-0.1c-0.5,0-0.9,0.1-1.4,0.1
		V88.1z M197.8,82.7c0.9,0,1.6,0.7,1.6,1.6c0,0.9-0.8,1.6-1.6,1.6s-1.6-0.8-1.6-1.6C196.3,83.5,197,82.7,197.8,82.7z"/>
	<path class="st0" d="M208.6,89.4c0.1-0.4,0.1-0.8,0-1.3h1.5c0.2-1.1,0.4-2.3,1.1-3.4c1-1.8,2.1-2.5,4.2-2.1
		c-0.1,0.9-0.1,1.8-0.1,2.6l-0.3,0.1c-0.5-0.3-1.2-0.6-1.8-0.6c-0.3,0-0.9,0-1.1,0.3c-0.1,0.1-0.2,0.2-0.2,0.4
		c0,0.5,0.6,2.1,0.9,2.7h2.1c-0.1,0.5-0.1,0.8,0,1.3h-1.9V98c-0.5,0-0.9-0.1-1.4-0.1c-0.5,0-0.9,0.1-1.4,0.1v-8.6H208.6z"/>
	<path class="st0" d="M223.2,93.2c0-3.2,1.9-5.4,5-5.4c3.1,0,5,1.9,5,4.9c0,3.1-1.8,5.4-5,5.4C225.2,98.2,223.2,96.3,223.2,93.2z
		 M226.2,93.2c0,1.3,0.2,4.1,1.9,4.1c1.6,0,2-2.5,2-4.8c0-2-0.5-3.7-1.9-3.7C226.7,88.8,226.2,90.8,226.2,93.2z"/>
	<path class="st0" d="M243,88.1c0.5,0,0.9,0.1,1.4,0.1c0.5,0,0.9-0.1,1.4-0.1v2.5c0.4-1.5,1.3-2.7,3.3-2.7c-0.1,1-0.2,1.9-0.1,2.8
		l-0.2,0.2c-0.3-0.2-0.7-0.3-1-0.3c-0.9,0-1.6,0.5-1.9,1.4c-0.2,0.6-0.1,1.7-0.1,2.4V98c-0.5,0-0.9-0.1-1.4-0.1
		c-0.5,0-0.9,0.1-1.4,0.1L243,88.1L243,88.1z"/>
	<path class="st0" d="M258.4,88.1c0.5,0,0.9,0.1,1.4,0.1c0.5,0,0.9-0.1,1.3-0.1v1.5c0.8-1,1.9-1.7,3.1-1.7c2.6,0,3.2,1.6,3.2,4.1v6
		c-0.5,0-0.9-0.1-1.4-0.1c-0.5,0-0.9,0.1-1.4,0.1v-5.1c0-1.9-0.2-3.3-1.7-3.3c-1.8,0-1.8,2.4-1.8,3.7V98c-0.5,0-0.9-0.1-1.4-0.1
		c-0.5,0-0.9,0.1-1.4,0.1L258.4,88.1L258.4,88.1z"/>
	<path class="st0" d="M277.7,88.1c0.5,0,0.9,0.1,1.4,0.1c0.5,0,0.9-0.1,1.4-0.1V98c-0.5,0-0.9-0.1-1.4-0.1c-0.5,0-0.9,0.1-1.4,0.1
		V88.1z M279.1,82.7c0.9,0,1.6,0.7,1.6,1.6c0,0.9-0.8,1.6-1.6,1.6c-0.9,0-1.6-0.8-1.6-1.6C277.5,83.5,278.3,82.7,279.1,82.7z"/>
	<path class="st0" d="M298.5,96.2c0,0.8,0.2,1,1,1v0.5c-0.5,0.2-1.3,0.5-1.8,0.5c-1,0-1.7-0.6-2-1.5c-0.5,0.9-1.6,1.5-2.6,1.5
		c-1.7,0-2.9-0.9-2.9-2.7c0-1.9,1.2-2.5,3.7-3.1c0.5-0.1,1-0.2,1.5-0.5c0.2-0.2,0.3-0.5,0.3-0.8c0-1-1-1.8-1.9-1.8
		c-1.3,0-2.4,0.9-2.5,1.3h-0.1l-0.3-1.2c1-0.9,2.5-1.4,3.8-1.4c1.7,0,3.9,0.7,3.9,2.7L298.5,96.2L298.5,96.2z M295.7,92.6
		c-0.5,0.2-1.4,0.4-2,0.9c-0.5,0.4-0.7,1-0.7,1.7c0,0.8,0.2,1.6,1.1,1.6c1.2,0,1.5-1.2,1.6-2.2V92.6z"/>
</g>
<g>
	<path class="st0" d="M154.7,4.6c0-1-0.1-2-0.2-2.9c1.9,0.1,3.7,0.2,5.1,0.2c1.2,0,2.3,0,3.9-0.2c-0.1,0.3-0.1,0.7-0.1,1
		c0,0.4,0,0.7,0.1,1.1c-1.4-0.3-3.5-0.3-5-0.3c0,0.8-0.1,1.6-0.1,2.3v2.2c1.8,0,3.2,0,4.9-0.2c-0.1,0.4-0.1,0.7-0.1,1.1
		c0,0.4,0.1,0.7,0.1,1c-1.6-0.2-2.9-0.2-4.9-0.2v4.4c0,0.3,0,0.6,0,0.9c1.1,0,3.4,0,4.9-0.3c-0.1,0.4-0.1,0.7-0.1,1
		c0,0.4,0,0.7,0.1,1.1c-1.4-0.1-3.4-0.2-5-0.2c-1.4,0-2.8,0.1-4.1,0.2c0.2-1.1,0.3-3.2,0.3-4.4L154.7,4.6z"/>
	<path class="st0" d="M171.1,7.9c0.9-1.3,2-1.9,3.6-1.9c1.6,0,2.5,0.6,3.1,2c0.8-1.3,2-2,3.5-2c2.2,0,3.5,1.2,3.5,3.6
		c0,1.3,0,3.6,0,5c0,1.1,0.1,1.6,0.1,2.3c-0.6-0.1-1.3-0.1-1.9-0.1c-0.7,0-1.4,0.1-1.8,0.1c0.2-1.6,0.2-3.5,0.2-5.1
		c0-2.2,0-3.7-1.6-3.7c-1.3,0-1.8,0.9-1.8,2.7v4c0,0.6,0.1,1.5,0.1,2.1c-0.6-0.1-1.2-0.1-1.9-0.1c-0.5,0-1.2,0-1.8,0.1
		c0.2-1.4,0.2-3.1,0.2-4.6c0-3.2-0.2-4.3-1.7-4.3c-1.6,0-1.8,1.5-1.8,2.7v3.9c0,0.6,0,1.5,0.1,2.2c-0.5-0.1-1.2-0.1-1.9-0.1
		c-0.8,0-1.5,0.1-1.8,0.1c0.1-0.8,0.1-1.7,0.1-2.5v-5c0-1.1-0.1-2.2-0.2-3.2c0.6,0.1,1.2,0.1,1.8,0.1c0.6,0,1.2,0,1.8-0.1L171.1,7.9
		z"/>
	<path class="st0" d="M193.1,11.7c0-1.8,0.4-4.2,2.1-4.2c1.9,0,2.1,2.6,2.1,3.9c0,2.5-0.5,4.3-2.1,4.3
		C193.2,15.6,193.1,13.1,193.1,11.7z M193.1,6.1c-0.5,0.1-1.1,0.1-1.6,0.1c-0.7,0-1.2,0-1.8-0.1c0.2,1.6,0.2,4,0.2,6.9
		c0,3,0,6-0.3,9.5c0.5-0.1,1.2-0.1,1.8-0.1c0.6,0,1.4,0,2,0.1c-0.2-1.7-0.2-3.4-0.2-6.7c0.9,1,1.7,1.4,3.1,1.4
		c3.3,0,4.8-2.7,4.8-5.7c0-3.2-1.6-5.6-4.8-5.6c-1.8,0-2.6,0.9-3.2,1.8L193.1,6.1z"/>
	<path class="st0" d="M208.9,16.9c-0.6-0.1-1.3-0.1-1.9-0.1c-0.6,0-1.2,0-1.9,0.1c0.1-2.3,0.2-6.1,0.2-8.6c0-1.4,0-6.1-0.2-7.6
		c0.4,0.1,1.1,0.1,1.9,0.1c0.8,0,1.4,0,1.9-0.1c-0.1,1.1-0.2,4.2-0.2,7.4C208.7,11.4,208.8,14.9,208.9,16.9z"/>
	<path class="st0" d="M219,16.1c-2.1,0-2.1-3.2-2.1-4.6c0-1.4,0-4.6,2.1-4.6c2.1,0,2.2,2.9,2.2,4.4C221.2,13.6,220.9,16.1,219,16.1z
		 M213.3,11.6c0,3.3,2,5.6,5.8,5.6c3.9,0,5.9-2.6,5.9-5.8S223,5.9,219,5.9C214.9,5.9,213.3,8.6,213.3,11.6z"/>
	<path class="st0" d="M232.2,17.2c-1.4-3.7-2.8-7.7-4.3-11.1c0.7,0.1,1.6,0.1,2.1,0.1c0.4,0,1.3,0,2-0.1c0.9,3.4,1.6,5.5,2.1,6.8
		c0.8-2.2,1.7-4.6,2.3-6.8c0.2,0,0.7,0.1,1.3,0.1c0.3,0,0.7,0,1.2-0.1c-0.5,0.9-0.9,1.6-1.8,3.7c-1.8,4.2-3.6,8.4-5.1,12.8
		c-0.4-0.1-0.9-0.1-1.2-0.1c-0.3,0-0.8,0-1.2,0.1C230.1,21.5,231,19.9,232.2,17.2z"/>
	<path class="st0" d="M245.6,7.9c0.9-1.3,1.9-1.9,3.5-1.9c1.6,0,2.5,0.6,3.1,2c0.8-1.3,2-2,3.5-2c2.2,0,3.5,1.2,3.5,3.6
		c0,1.3,0,3.6,0,5c0,1.1,0.1,1.6,0.1,2.3c-0.6-0.1-1.3-0.1-1.9-0.1c-0.7,0-1.4,0.1-1.8,0.1c0.2-1.6,0.2-3.5,0.2-5.1
		c0-2.2,0-3.7-1.6-3.7c-1.3,0-1.8,0.9-1.8,2.7v4c0,0.6,0.1,1.5,0.1,2.1c-0.6-0.1-1.2-0.1-1.9-0.1c-0.5,0-1.2,0-1.8,0.1
		c0.2-1.4,0.2-3.1,0.2-4.6c0-3.2-0.2-4.3-1.7-4.3c-1.6,0-1.8,1.5-1.8,2.7v3.9c0,0.6,0,1.5,0.1,2.2c-0.5-0.1-1.2-0.1-1.9-0.1
		c-0.8,0-1.5,0.1-1.8,0.1c0.1-0.8,0.1-1.7,0.1-2.5v-5c0-1.1-0.1-2.2-0.2-3.2c0.6,0.1,1.2,0.1,1.8,0.1c0.6,0,1.2,0,1.8-0.1L245.6,7.9
		z"/>
	<path class="st0" d="M267.3,10.5c0-2.7,0.9-3.5,1.8-3.5c1.1,0,1.6,0.9,1.6,3.5H267.3z M273.4,14.2c-1.1,1.2-2.2,1.2-2.9,1.2
		c-2.9,0-3.2-2.3-3.2-3.7c1.4-0.1,2-0.1,3-0.1c1.3,0,2.5,0,3.8,0.1c0-0.2,0.1-0.6,0.1-0.9c0-2.7-1.5-4.9-4.9-4.9
		c-2.8,0-5.5,1.5-5.5,5.6c0,3.3,2,5.7,5.6,5.7c0.8,0,2.5-0.1,3.9-1.1c0.1-0.4,0.2-0.9,0.6-1.6L273.4,14.2z"/>
	<path class="st0" d="M282.1,7.8c0.6-1.1,1.8-1.9,3.4-1.9c1.1,0,2.4,0.4,3,1.3c0.5,0.8,0.6,1.4,0.6,2.3v4.6c0,0.9,0,1.8,0.1,2.7
		c-0.6-0.1-1.2-0.1-1.9-0.1c-0.8,0-1.5,0.1-1.8,0.1c0.2-1.4,0.2-3.5,0.2-4.9c0-2.7-0.1-3.9-1.7-3.9c-1.4,0-1.8,1.1-1.8,2.5v4.7
		c0,0.5,0,1.2,0.1,1.6c-0.6-0.1-1.1-0.1-1.7-0.1c-0.6,0-1.4,0-2,0.1c0.1-1.1,0.2-2.2,0.2-3.3V9.5c0-1.2,0-2.2-0.2-3.4
		c0.3,0,1,0.1,1.8,0.1c0.8,0,1.5-0.1,1.8-0.1L282.1,7.8z"/>
	<path class="st0" d="M298.4,2.4c-0.1,1.3-0.3,3.2-0.3,3.9c0.5,0,1.2-0.1,1.9-0.1c0,0.2-0.1,0.4-0.1,0.7c0,0.4,0,0.6,0.1,0.7
		c-0.6,0-1.4-0.1-1.9-0.1c-0.1,1.9-0.1,4.2-0.1,6.1c0,1.3,0,2.3,1.1,2.3c0.3,0,0.6-0.1,0.9-0.2c0,0.2-0.1,0.4-0.1,0.5
		c0,0.2,0,0.4,0.1,0.5c-1,0.3-1.6,0.5-2.4,0.5c-0.9,0-1.7-0.3-2.2-0.8c-0.6-0.6-0.7-1.3-0.7-2.4c0-1.8,0.1-4.7,0.1-6.5
		c-0.4,0-0.9,0.1-1.4,0.1c0.1-0.2,0.1-0.4,0.1-0.7c0-0.3,0-0.5-0.1-0.7c0.5,0,1.1,0.1,1.4,0.1c0-1,0-1.6-0.1-2.5
		c1.7-0.6,2.8-1.3,3.5-1.6L298.4,2.4z"/>
	<path class="st0" d="M158.5,30.7c0-0.7,0.1-2.5,0.1-2.9c0.3,0,0.6,0,1.8,0c0.9,0,2.1,0,3.2,1c1.4,1.2,1.7,3.4,1.7,4.7
		c0,0.8-0.1,3.5-1.5,5c-1,1.1-2.5,1.3-3.7,1.3c-0.7,0-1.2-0.1-1.4-0.1c0-0.5,0-1.1,0-1.7V30.7z M154.9,37c0,1.4-0.1,2.9-0.2,4.3
		c1-0.1,2.3-0.1,2.7-0.1c0.6,0,2.8,0.1,3.6,0.1c5.5,0,8.2-3.6,8.2-7.9c0-4.9-3.3-7.3-7.5-7.3c-1.7,0-3.4,0.1-5,0.1
		c-0.7,0-1.4,0-2-0.1c0.2,1.4,0.2,2.8,0.2,4.2V37L154.9,37z"/>
	<path class="st0" d="M175.8,34.9c0-2.7,0.9-3.5,1.8-3.5c1.1,0,1.6,0.9,1.6,3.5H175.8z M181.9,38.6c-1.1,1.2-2.2,1.2-2.9,1.2
		c-2.9,0-3.2-2.3-3.2-3.7c1.4-0.1,2-0.1,3-0.1c1.3,0,2.5,0,3.8,0.1c0-0.2,0.1-0.6,0.1-0.9c0-2.7-1.5-4.9-4.9-4.9
		c-2.8,0-5.5,1.5-5.5,5.6c0,3.3,2,5.7,5.6,5.7c0.8,0,2.5-0.1,3.9-1.1c0.1-0.4,0.2-0.9,0.6-1.6L181.9,38.6z"/>
	<path class="st0" d="M192.4,38.1c-0.8,2.1-0.9,2.5-1.1,3.3c-0.5-0.1-0.9-0.1-1.4-0.1c-0.5,0-0.9,0-1.4,0.1
		c-0.6-2.4-2.5-7.8-3.9-10.8c0.7,0.1,1.4,0.1,2.1,0.1c0.7,0,1.3,0,2-0.1c0.4,1.8,1.2,4.3,2.1,7.2c1.6-4.8,1.7-5,2.3-7.2
		c0.5,0.1,1,0.1,1.3,0.1c0.4,0,0.7-0.1,1.1-0.1c-0.3,0.5-0.7,1.3-1.1,2.4L192.4,38.1z"/>
	<path class="st0" d="M200.6,34.9c0-2.7,0.9-3.5,1.8-3.5c1.1,0,1.6,0.9,1.6,3.5H200.6z M206.7,38.6c-1.1,1.2-2.2,1.2-2.9,1.2
		c-2.9,0-3.2-2.3-3.2-3.7c1.4-0.1,2-0.1,3-0.1c1.3,0,2.5,0,3.8,0.1c0-0.2,0.1-0.6,0.1-0.9c0-2.7-1.5-4.9-4.9-4.9
		c-2.8,0-5.5,1.5-5.5,5.6c0,3.3,2,5.7,5.6,5.7c0.8,0,2.5-0.1,3.9-1.1c0.1-0.4,0.2-0.9,0.6-1.6L206.7,38.6z"/>
	<path class="st0" d="M214.3,41.4c-0.6-0.1-1.3-0.1-1.9-0.1c-0.6,0-1.2,0-1.9,0.1c0.1-2.3,0.2-6.1,0.2-8.6c0-1.4,0-6.1-0.2-7.6
		c0.4,0.1,1.1,0.1,1.9,0.1c0.8,0,1.4,0,1.9-0.1c-0.1,1.1-0.2,4.2-0.2,7.4C214.1,35.9,214.2,39.3,214.3,41.4z"/>
	<path class="st0" d="M223.2,40.6c-2.1,0-2.1-3.2-2.1-4.6c0-1.4,0-4.6,2.1-4.6s2.2,2.9,2.2,4.4C225.4,38.1,225,40.6,223.2,40.6z
		 M217.4,36c0,3.3,2,5.6,5.8,5.6c3.9,0,5.9-2.6,5.9-5.8c0-3.2-1.9-5.5-5.9-5.5C219,30.4,217.4,33,217.4,36z"/>
	<path class="st0" d="M234.9,36.1c0-1.8,0.4-4.2,2.1-4.2c1.9,0,2.1,2.6,2.1,3.9c0,2.5-0.5,4.3-2.1,4.3
		C235.1,40.1,234.9,37.5,234.9,36.1z M234.9,30.6c-0.5,0.1-1.1,0.1-1.6,0.1c-0.7,0-1.2,0-1.8-0.1c0.2,1.6,0.2,4,0.2,6.9
		c0,3,0,6-0.3,9.5c0.5-0.1,1.2-0.1,1.8-0.1s1.4,0,2,0.1c-0.2-1.7-0.2-3.4-0.2-6.7c0.9,1,1.7,1.4,3.1,1.4c3.3,0,4.8-2.7,4.8-5.7
		c0-3.2-1.6-5.6-4.8-5.6c-1.8,0-2.6,0.9-3.2,1.8L234.9,30.6z"/>
	<path class="st0" d="M249.2,32.4c0.9-1.3,2-1.9,3.6-1.9c1.6,0,2.5,0.6,3.1,2c0.8-1.3,2-2,3.5-2c2.2,0,3.5,1.2,3.5,3.6
		c0,1.3,0,3.6,0,5c0,1.1,0.1,1.6,0.1,2.3c-0.6-0.1-1.3-0.1-1.9-0.1c-0.7,0-1.4,0.1-1.8,0.1c0.2-1.6,0.2-3.5,0.2-5.1
		c0-2.2,0-3.7-1.6-3.7c-1.3,0-1.8,0.9-1.8,2.7v4c0,0.6,0.1,1.5,0.1,2.1c-0.6-0.1-1.2-0.1-1.9-0.1c-0.5,0-1.2,0-1.8,0.1
		c0.2-1.4,0.2-3.1,0.2-4.6c0-3.2-0.2-4.3-1.7-4.3c-1.6,0-1.8,1.5-1.8,2.7v3.9c0,0.6,0,1.5,0.1,2.2c-0.5-0.1-1.2-0.1-1.9-0.1
		c-0.8,0-1.5,0.1-1.8,0.1c0.1-0.8,0.1-1.7,0.1-2.5v-5c0-1.1-0.1-2.2-0.2-3.2c0.6,0.1,1.2,0.1,1.8,0.1c0.6,0,1.2,0,1.8-0.1
		L249.2,32.4z"/>
	<path class="st0" d="M269.8,34.9c0-2.7,0.9-3.5,1.8-3.5c1.1,0,1.6,0.9,1.6,3.5H269.8z M275.8,38.6c-1.1,1.2-2.2,1.2-2.9,1.2
		c-2.9,0-3.2-2.3-3.2-3.7c1.4-0.1,2-0.1,3-0.1c1.3,0,2.5,0,3.8,0.1c0-0.2,0.1-0.6,0.1-0.9c0-2.7-1.5-4.9-4.9-4.9
		c-2.8,0-5.5,1.5-5.5,5.6c0,3.3,2,5.7,5.6,5.7c0.8,0,2.5-0.1,3.9-1.1c0.1-0.4,0.2-0.9,0.6-1.6L275.8,38.6z"/>
	<path class="st0" d="M283.3,32.3c0.6-1.1,1.8-1.9,3.4-1.9c1.1,0,2.4,0.4,3,1.3c0.5,0.8,0.6,1.4,0.6,2.3v4.6c0,0.9,0,1.8,0.1,2.7
		c-0.6-0.1-1.2-0.1-1.9-0.1c-0.8,0-1.5,0.1-1.8,0.1c0.2-1.4,0.2-3.5,0.2-4.9c0-2.7-0.1-3.9-1.7-3.9c-1.4,0-1.8,1.1-1.8,2.5v4.7
		c0,0.5,0,1.2,0.1,1.6c-0.6-0.1-1.1-0.1-1.7-0.1c-0.6,0-1.4,0-2,0.1c0.1-1.1,0.2-2.2,0.2-3.3V34c0-1.2,0-2.2-0.2-3.4
		c0.3,0,1,0.1,1.8,0.1c0.8,0,1.5-0.1,1.8-0.1L283.3,32.3z"/>
	<path class="st0" d="M298.4,26.9c-0.1,1.3-0.3,3.2-0.3,3.9c0.5,0,1.2-0.1,1.9-0.1c0,0.2-0.1,0.4-0.1,0.7c0,0.4,0,0.6,0.1,0.7
		c-0.6,0-1.4-0.1-1.9-0.1c-0.1,1.9-0.1,4.2-0.1,6.1c0,1.3,0,2.3,1.1,2.3c0.3,0,0.6-0.1,0.9-0.2c0,0.2-0.1,0.4-0.1,0.5
		c0,0.2,0,0.4,0.1,0.5c-1,0.3-1.6,0.5-2.4,0.5c-0.9,0-1.7-0.3-2.2-0.8c-0.6-0.6-0.7-1.3-0.7-2.4c0-1.8,0.1-4.7,0.1-6.5
		c-0.4,0-0.9,0.1-1.4,0.1c0.1-0.2,0.1-0.4,0.1-0.7c0-0.3,0-0.5-0.1-0.7c0.5,0,1.1,0.1,1.4,0.1c0-1,0-1.6-0.1-2.5
		c1.7-0.6,2.8-1.3,3.5-1.6L298.4,26.9z"/>
	<path class="st0" d="M158.5,55.1c0-0.7,0.1-2.5,0.1-2.9c0.3,0,0.6,0,1.8,0c0.9,0,2.1,0,3.2,1c1.4,1.2,1.7,3.4,1.7,4.7
		c0,0.8-0.1,3.5-1.5,5c-1,1.1-2.5,1.3-3.7,1.3c-0.7,0-1.2-0.1-1.4-0.1c0-0.5,0-1.1,0-1.7V55.1z M154.9,61.5c0,1.4-0.1,2.9-0.2,4.3
		c1-0.1,2.3-0.1,2.7-0.1c0.6,0,2.8,0.1,3.6,0.1c5.5,0,8.2-3.6,8.2-7.9c0-4.9-3.3-7.3-7.5-7.3c-1.7,0-3.4,0.1-5,0.1
		c-0.7,0-1.4,0-2-0.1c0.2,1.4,0.2,2.8,0.2,4.2V61.5L154.9,61.5z"/>
	<path class="st0" d="M177.5,59.4c0-2.7,0.9-3.5,1.8-3.5c1.1,0,1.6,0.9,1.6,3.5H177.5z M183.5,63.1c-1.1,1.2-2.2,1.2-2.9,1.2
		c-2.9,0-3.2-2.3-3.2-3.7c1.4-0.1,2-0.1,3-0.1c1.3,0,2.5,0,3.8,0.1c0-0.2,0.1-0.6,0.1-0.9c0-2.7-1.5-4.9-4.9-4.9
		c-2.8,0-5.5,1.5-5.5,5.6c0,3.3,2,5.7,5.6,5.7c0.8,0,2.5-0.1,3.9-1.1c0.1-0.4,0.2-0.9,0.6-1.6L183.5,63.1z"/>
	<path class="st0" d="M192.6,60.5c0-1.8,0.4-4.2,2.1-4.2c1.9,0,2.1,2.6,2.1,3.9c0,2.5-0.5,4.3-2.1,4.3
		C192.8,64.5,192.6,61.9,192.6,60.5z M192.6,55c-0.5,0.1-1.1,0.1-1.6,0.1c-0.7,0-1.2,0-1.8-0.1c0.2,1.6,0.2,4,0.2,6.9
		c0,3,0,6-0.3,9.5c0.5-0.1,1.2-0.1,1.8-0.1c0.6,0,1.4,0,2,0.1c-0.2-1.7-0.2-3.4-0.2-6.7c0.9,1,1.7,1.4,3.1,1.4
		c3.3,0,4.8-2.7,4.8-5.7c0-3.2-1.6-5.6-4.8-5.6c-1.8,0-2.6,0.9-3.2,1.8L192.6,55z"/>
	<path class="st0" d="M210.3,60.3c0,2.1,0,2.7-0.1,3.2c-0.2,0.6-0.6,1-1.2,1c-1.2,0-1.3-1-1.3-1.6C207.6,61.2,208.2,60.7,210.3,60.3
		z M205.6,57.7c0.4-0.4,1.2-1.2,2.7-1.2c1.3,0,2,0.7,2,1.9c0,0.6,0,0.7-1.6,1.1c-2.9,0.9-4.4,1.3-4.4,3.6c0,1.3,0.7,3,3.1,3
		c1.8,0,2.6-0.9,3-1.5c0.2,0.4,0.6,1.4,2.1,1.4c1,0,1.9-0.5,2.3-0.8c0-0.3,0-0.6,0-0.9c-0.2,0.2-0.5,0.3-0.7,0.3
		c-0.7,0-0.7-0.7-0.7-1.5c0-2.2,0.1-3.7,0.1-4.7c0-0.9-0.2-1.9-0.9-2.5c-0.9-0.8-2.1-1.1-3.3-1.1c-1.1,0-2.7,0.3-4.2,1.4
		C205.4,56.7,205.5,57.2,205.6,57.7L205.6,57.7z"/>
	<path class="st0" d="M225.3,58.4c-0.4-0.3-0.7-0.5-1.2-0.5c-1.5,0-1.5,1.7-1.5,3.1c0,0.7,0,2.8,0.2,4.7c-0.6-0.1-1.4-0.1-2-0.1
		c-0.7,0-1.5,0.1-1.7,0.1c0.1-1.4,0.2-1.9,0.2-4.8c0-2.3,0-4-0.2-6c0.3,0,1,0.1,1.8,0.1c0.8,0,1.4-0.1,1.7-0.1l-0.2,2.3
		c1-2.6,2.2-2.5,3.3-2.4c-0.1,0.7-0.2,1.8-0.2,3.4L225.3,58.4z"/>
	<path class="st0" d="M234.7,51.3c-0.1,1.3-0.3,3.2-0.3,3.9c0.5,0,1.2-0.1,1.9-0.1c0,0.2-0.1,0.4-0.1,0.7c0,0.4,0,0.6,0.1,0.7
		c-0.6,0-1.4-0.1-1.9-0.1c-0.1,1.9-0.1,4.2-0.1,6.1c0,1.3,0,2.3,1.1,2.3c0.3,0,0.6-0.1,0.9-0.2c0,0.2-0.1,0.4-0.1,0.5
		c0,0.2,0,0.4,0.1,0.5c-1,0.3-1.6,0.5-2.4,0.5c-0.9,0-1.7-0.3-2.2-0.8c-0.6-0.6-0.7-1.3-0.7-2.4c0-1.8,0.1-4.7,0.1-6.5
		c-0.4,0-0.9,0.1-1.4,0.1c0.1-0.2,0.1-0.4,0.1-0.7c0-0.3,0-0.5-0.1-0.7c0.5,0,1.1,0.1,1.4,0.1c0-1,0-1.6-0.1-2.5
		c1.7-0.6,2.8-1.3,3.5-1.6L234.7,51.3z"/>
	<path class="st0" d="M244.2,56.8c0.9-1.3,1.9-1.9,3.5-1.9c1.6,0,2.5,0.6,3.1,2c0.8-1.3,2-2,3.5-2c2.2,0,3.5,1.2,3.5,3.6
		c0,1.3,0,3.6,0,5c0,1.1,0.1,1.6,0.1,2.3c-0.6-0.1-1.3-0.1-1.9-0.1c-0.7,0-1.4,0.1-1.8,0.1c0.2-1.6,0.2-3.5,0.2-5.1
		c0-2.2,0-3.7-1.6-3.7c-1.3,0-1.8,0.9-1.8,2.7v4c0,0.6,0.1,1.5,0.1,2.1c-0.6-0.1-1.2-0.1-1.9-0.1c-0.5,0-1.2,0-1.8,0.1
		c0.2-1.4,0.2-3.1,0.2-4.6c0-3.2-0.2-4.3-1.7-4.3c-1.6,0-1.8,1.5-1.8,2.7v3.9c0,0.6,0,1.5,0.1,2.2c-0.5-0.1-1.2-0.1-1.9-0.1
		c-0.8,0-1.5,0.1-1.8,0.1c0.1-0.8,0.1-1.7,0.1-2.5v-5c0-1.1-0.1-2.2-0.2-3.2c0.6,0.1,1.2,0.1,1.8,0.1c0.6,0,1.2,0,1.8-0.1
		L244.2,56.8z"/>
	<path class="st0" d="M266.4,59.4c0-2.7,0.9-3.5,1.8-3.5c1.1,0,1.6,0.9,1.6,3.5H266.4z M272.5,63.1c-1.1,1.2-2.2,1.2-2.9,1.2
		c-2.9,0-3.2-2.3-3.2-3.7c1.4-0.1,2-0.1,3-0.1c1.3,0,2.5,0,3.8,0.1c0-0.2,0.1-0.6,0.1-0.9c0-2.7-1.5-4.9-4.9-4.9
		c-2.8,0-5.5,1.5-5.5,5.6c0,3.3,2,5.7,5.6,5.7c0.8,0,2.5-0.1,3.9-1.1c0.1-0.4,0.2-0.9,0.6-1.6L272.5,63.1z"/>
	<path class="st0" d="M281.6,56.7c0.6-1.1,1.8-1.9,3.4-1.9c1.1,0,2.4,0.4,3,1.3c0.5,0.8,0.6,1.4,0.6,2.3v4.6c0,0.9,0,1.8,0.1,2.7
		c-0.6-0.1-1.2-0.1-1.9-0.1c-0.8,0-1.5,0.1-1.8,0.1c0.2-1.4,0.2-3.5,0.2-4.9c0-2.7-0.1-3.9-1.7-3.9c-1.4,0-1.8,1.1-1.8,2.5v4.7
		c0,0.5,0,1.2,0.1,1.6c-0.6-0.1-1.1-0.1-1.7-0.1c-0.6,0-1.4,0-2,0.1c0.1-1.1,0.2-2.2,0.2-3.3v-4.1c0-1.2,0-2.2-0.2-3.4
		c0.3,0,1,0.1,1.8,0.1c0.8,0,1.5-0.1,1.8-0.1L281.6,56.7z"/>
	<path class="st0" d="M298.3,51.3c-0.1,1.3-0.3,3.2-0.3,3.9c0.5,0,1.2-0.1,1.9-0.1c0,0.2-0.1,0.4-0.1,0.7c0,0.4,0,0.6,0.1,0.7
		c-0.6,0-1.4-0.1-1.9-0.1c-0.1,1.9-0.1,4.2-0.1,6.1c0,1.3,0,2.3,1.1,2.3c0.3,0,0.6-0.1,0.9-0.2c0,0.2-0.1,0.4-0.1,0.5
		c0,0.2,0,0.4,0.1,0.5c-1,0.3-1.6,0.5-2.4,0.5c-0.9,0-1.7-0.3-2.2-0.8c-0.6-0.6-0.7-1.3-0.7-2.4c0-1.8,0.1-4.7,0.1-6.5
		c-0.4,0-0.9,0.1-1.4,0.1c0.1-0.2,0.1-0.4,0.1-0.7c0-0.3,0-0.5-0.1-0.7c0.5,0,1.1,0.1,1.4,0.1c0-1,0-1.6-0.1-2.5
		c1.7-0.6,2.8-1.3,3.5-1.6L298.3,51.3z"/>
</g>
<g>
	<path class="st0" d="M2,65.2l8.1-46.1h37.6l-1.9,10.8H23.3l-1.2,6.6h19l-1.9,10.8h-19L19,54.4h23.4l-1.9,10.8L2,65.2L2,65.2z"/>
	<path class="st0" d="M67.3,29.9h2.9c8.1,0,10.8,2.6,9.1,12.2c-1.5,8.7-6,12.4-13.1,12.4h-3.2L67.3,29.9z M65.8,65.2
		c14.8,0,25.6-6.7,28.7-24c2.7-15.2-5.3-22.1-20.2-22.1H54l-8.1,46.1H65.8z"/>
	<path class="st0" d="M115.5,29.9h2.9c8.1,0,10.8,2.6,9.1,12.2c-1.5,8.7-6,12.4-13.1,12.4h-3.2L115.5,29.9z M114,65.2
		c14.8,0,25.6-6.7,28.7-24c2.7-15.2-5.3-22.1-20.2-22.1h-20.2l-8.1,46.1H114z"/>
</g>
<path class="st1" d="M63.4,6.2c27.7-7.2,54.5-2.4,66.5,10.6c2.7,0.4,5,1.1,7.1,2.1C124.4,5.5,98.5-2.2,69.8,0.5
	C51.4,2.3,35,8.1,23.3,16.1H39C46,12,54.3,8.6,63.4,6.2z"/>
<rect y="103.3" class="st1" width="299.8" height="2.3"/>
<path class="st1" d="M299.8,74.4H113.1c5.4-2.4,10.3-5.1,14.6-8.2c-4.2,1.6-9,2.3-14.2,2.3h-5.2c-6.6,3.6-14.1,6.6-22.3,8.7
	c-26.5,6.9-52.1,2.8-64.8-8.9h-4.7c2.8,2.2,6,4.3,9.5,6.1H0.1v2.3h30.8c13.3,5.5,30.3,7.9,48.6,6.2c10.1-1,19.6-3.1,28-6.2h192.4
	L299.8,74.4L299.8,74.4z"/>
</svg>
